<?xml version="1.0" encoding="utf-8"?>
<!-- Generator: Adobe Illustrator 26.2.1, SVG Export Plug-In . SVG Version: 6.00 Build 0)  -->
<svg version="1.1" id="圖層_1" xmlns="http://www.w3.org/2000/svg" xmlns:xlink="http://www.w3.org/1999/xlink" x="0px" y="0px"
	 viewBox="0 0 1417.32 566.93" style="enable-background:new 0 0 1417.32 566.93;" xml:space="preserve">
<g>
	<polygon points="952.52,502.24 946.19,505.75 936.34,509.27 923.68,511.38 901.87,511.38 889.2,508.57 877.25,502.94 868.8,496.61 
		863.18,489.57 862.47,486.06 865.99,481.83 875.84,471.28 884.98,458.62 890.61,448.07 893.43,440.33 893.43,435.41 892.02,431.18 
		888.5,428.37 882.17,427.67 878.65,428.37 870.21,432.59 863.18,439.63 858.96,445.25 853.33,456.51 851.22,467.06 851.22,483.24 
		849.11,485.35 838.56,492.39 832.22,495.9 825.89,498.01 832.22,494.5 837.85,490.28 837.85,483.94 835.04,481.83 828.71,481.83 
		824.49,483.24 818.86,486.06 813.93,490.28 811.12,494.5 806.2,495.9 790.02,499.42 780.17,499.42 785.79,495.9 792.13,491.68 
		797.05,485.35 797.05,479.72 795.64,477.61 792.13,475.5 784.39,475.5 779.46,477.61 773.84,481.83 768.91,489.57 766.8,495.2 
		755.55,498.72 739.37,502.24 740.07,500.83 743.59,488.17 743.59,481.83 742.88,480.43 740.07,479.02 735.14,479.02 733.74,479.72 
		724.59,486.06 718.96,490.98 720.37,484.65 719.67,481.13 716.85,478.32 711.23,478.32 707.71,479.72 707.01,475.5 703.49,474.8 
		699.27,477.61 690.12,486.76 683.09,493.09 676.05,498.72 669.02,502.24 664.09,502.24 663.39,501.53 663.39,495.9 664.8,492.39 
		669.02,485.35 671.13,481.13 667.61,476.21 664.09,476.91 661.28,480.43 655.65,486.76 648.62,493.09 640.18,498.72 631.73,501.53 
		632.44,496.61 633.84,493.09 639.47,483.24 640.18,478.32 638.07,475.5 633.14,476.21 631.03,479.02 626.11,486.06 614.85,497.31 
		607.82,502.94 601.49,506.46 596.56,507.16 595.15,505.75 595.15,498.72 597.97,488.87 602.19,479.72 606.41,472.69 609.93,469.17 
		631.73,466.36 645.8,464.25 649.32,462.14 649.32,458.62 647.91,455.81 641.58,455.81 632.44,457.21 614.85,460.03 616.26,457.21 
		616.96,452.29 614.85,449.47 609.93,450.18 607.82,452.29 602.19,460.73 593.75,462.14 572.64,466.36 564.2,469.88 563.5,472.69 
		565.61,475.5 569.13,475.5 581.79,472.69 596.56,469.88 595.86,471.99 589.53,480.43 581.08,490.28 576.16,495.9 570.53,500.83 
		562.79,507.16 552.95,514.19 546.61,516.3 546.61,513.49 550.13,501.53 552.24,490.28 551.54,486.06 548.72,483.24 541.69,483.24 
		534.66,486.76 526.92,492.39 523.4,494.5 522.7,485.35 521.29,481.83 517.77,479.02 510.74,476.91 507.22,477.61 498.07,480.43 
		486.82,486.06 475.56,493.79 467.83,500.83 462.9,508.57 462.9,513.49 464.31,514.9 469.23,516.3 471.34,514.19 472.75,507.16 
		480.49,500.12 489.63,493.79 496.67,490.28 506.52,486.76 514.96,486.76 514.25,493.79 512.14,500.83 509.33,506.46 504.41,511.38 
		499.48,517.01 491.74,526.15 486.82,533.89 486.82,538.11 489.63,540.93 493.15,540.93 495.26,539.52 503,531.08 511.44,519.12 
		517.77,511.38 527.62,502.94 538.88,494.5 543.8,491.68 537.47,512.79 537.47,519.12 538.17,521.23 540.28,524.04 545.21,526.15 
		549.43,525.45 555.76,522.64 562.79,518.42 572.64,510.68 581.08,502.24 586.71,497.31 586.71,508.57 587.42,510.68 593.04,515.6 
		602.19,515.6 606.41,514.19 612.04,510.68 623.29,502.24 624.7,506.46 628.92,509.97 635.96,509.97 638.07,509.27 646.51,505.05 
		654.25,500.12 654.95,504.35 657.76,509.27 662.69,511.38 669.02,511.38 676.76,508.57 683.09,504.35 686.61,502.94 685.9,507.86 
		687.31,509.27 691.53,510.68 694.34,507.86 701.38,498.72 708.41,490.98 708.41,493.09 705.6,500.12 705.6,505.05 707.01,507.16 
		711.23,508.57 715.45,506.46 722.48,500.12 728.11,495.2 733.03,490.28 731.63,497.31 731.63,507.16 735.14,509.97 747.81,509.97 
		762.58,505.75 769.61,504.35 771.02,505.75 777.35,508.57 787.91,508.57 792.13,507.86 810.42,504.35 811.82,506.46 816.04,508.57 
		821.67,508.57 831.52,505.75 839.26,502.24 849.11,495.9 855.44,492.39 857.55,496.61 862.47,502.94 869.51,508.57 880.06,514.19 
		892.72,518.42 903.98,520.53 920.16,520.53 932.82,519.12 945.48,515.6 951.11,512.79 958.85,509.97 960.26,508.57 960.96,505.05 
		956.74,502.24 	"/>
	<polygon points="518.48,243.36 524.81,240.54 530.43,240.54 538.17,242.65 555.76,247.58 569.13,247.58 573.35,246.17 
		578.97,242.65 585.31,235.62 588.12,227.88 588.12,220.85 587.42,217.33 585.31,213.11 580.38,207.48 573.35,204.67 566.31,204.67 
		562.79,206.07 557.17,211 555.06,217.33 555.76,223.66 558.57,228.58 562.09,231.4 567.02,232.1 570.53,229.29 571.24,224.36 
		568.42,220.85 567.72,217.33 569.13,216.63 572.64,217.33 575.46,220.85 575.46,227.88 574.05,229.99 570.53,233.51 565.61,235.62 
		557.17,234.92 540.28,229.29 531.84,227.18 508.63,224.36 502.3,224.36 503,222.96 512.85,217.33 521.29,211 529.03,204.67 
		538.88,194.82 545.21,187.78 545.21,182.86 543.1,180.05 539.58,178.64 524.81,179.34 513.55,180.75 498.78,184.27 502.3,180.05 
		508.63,173.01 517.07,163.16 525.51,151.91 526.21,147.69 522.7,143.46 517.77,143.46 514.25,146.28 507.92,154.72 500.89,163.16 
		494.56,170.9 476.97,188.49 469.94,194.82 465.01,200.45 465.72,205.37 468.53,208.18 473.45,208.18 489.63,200.45 502.3,196.23 
		518.48,192.71 524.81,191.3 524.81,192.71 521.99,194.11 512.85,201.85 503,208.89 492.45,215.22 478.38,221.55 466.42,225.07 
		453.05,228.58 449.54,232.1 449.54,237.03 450.24,238.43 453.76,240.54 457.98,240.54 471.34,237.73 488.23,236.32 507.22,236.32 
		505.81,239.14 503.7,244.76 503.7,251.1 504.41,254.61 509.33,266.57 513.55,280.64 516.37,297.53 516.37,327.07 513.55,346.06 
		509.33,360.84 503.7,372.8 498.07,381.94 491.04,391.09 488.23,391.09 486.12,388.27 482.6,379.13 482.6,369.28 483.3,366.47 
		483.3,360.84 480.49,358.02 475.56,358.02 472.05,361.54 469.94,371.39 470.64,381.24 474.16,391.79 478.38,398.12 484.71,403.75 
		488.93,405.86 492.45,405.16 498.07,400.94 505.81,391.79 512.85,381.94 519.18,369.98 524.1,355.21 527.62,337.62 529.03,323.55 
		529.03,301.04 528.32,292.6 526.21,279.94 521.99,265.17 516.37,251.1 515.66,246.88 517.07,243.36 	"/>
	<polygon points="764.69,82.97 767.5,93.52 767.5,100.55 763.28,111.81 763.99,118.14 766.1,119.55 770.32,120.25 773.84,117.44 
		775.95,113.22 780.17,104.07 784.39,97.04 789.31,92.11 804.08,87.19 828.71,80.15 856.14,73.82 876.54,70.3 901.87,67.49 
		932.12,66.08 972.21,66.08 986.28,67.49 997.54,70.3 1003.17,73.82 1005.98,78.04 1005.98,82.26 1003.17,85.78 994.73,92.11 
		982.77,98.44 976.44,102.66 975.73,106.88 978.55,111.11 983.47,111.81 998.24,104.77 1010.2,96.33 1015.13,91.41 1018.64,84.37 
		1018.64,75.93 1016.53,71.01 1012.31,65.38 1005.28,60.46 995.43,56.94 983.47,54.83 965.88,53.42 946.89,53.42 922.27,54.12 
		896.24,55.53 870.91,58.34 880.06,56.23 889.91,53.42 895.54,49.2 898.35,43.57 898.35,38.65 896.94,35.13 894.83,32.32 
		888.5,28.8 877.95,25.28 867.4,23.17 863.18,25.99 863.18,32.32 863.88,33.72 866.69,35.13 885.69,40.76 884.28,42.16 
		862.47,47.79 825.19,59.05 809.71,64.68 798.46,70.3 786.5,78.04 780.87,82.97 778.06,84.37 775.24,75.93 771.02,66.79 
		768.21,63.97 763.28,64.68 760.47,66.79 759.77,71.01 761.88,76.64 	"/>
	<polygon points="462.9,322.85 461.49,315.82 461.49,302.45 465.72,291.9 472.05,282.05 477.67,277.83 483.3,275.01 490.34,272.2 
		490.34,268.68 489.63,267.98 486.12,266.57 485.41,262.35 484.01,261.65 468.53,261.65 450.24,263.76 440.39,265.87 431.95,270.09 
		419.29,279.23 411.55,287.68 405.92,298.93 403.81,307.37 401.7,313.7 397.48,322.85 392.55,328.48 384.82,334.11 377.08,336.92 
		370.04,336.92 360.9,334.81 353.16,329.88 349.64,329.18 348.94,334.11 353.16,342.55 358.79,348.88 365.82,354.51 374.26,358.73 
		384.11,360.84 390.44,360.84 391.15,360.13 391.85,355.21 387.63,354.51 375.67,351.69 367.23,347.47 361.6,342.55 365.82,343.25 
		375.67,343.95 379.19,343.25 385.52,341.14 396.07,335.51 403.11,332.7 398.18,339.73 397.48,343.95 399.59,343.95 405.22,339.73 
		415.77,331.29 419.29,329.18 417.88,339.03 418.58,341.84 420.69,341.84 426.32,334.81 434.76,323.55 436.87,322.85 436.87,334.81 
		438.98,335.51 442.5,333.4 447.42,330.59 448.13,340.44 447.42,344.66 443.2,349.58 435.47,355.21 430.54,356.62 433.36,353.1 
		438.28,344.66 438.98,340.44 437.58,338.33 434.06,339.03 427.02,344.66 417.18,350.99 408.03,353.8 395.37,355.21 396.07,360.13 
		401,360.84 408.73,360.84 408.03,365.06 409.44,367.17 417.88,367.17 426.32,365.76 434.06,362.95 443.91,358.02 448.83,353.8 
		456.57,345.36 460.79,337.62 462.9,329.18 	"/>
	<polygon points="1106.58,109.7 1119.24,111.11 1150.9,113.22 1176.92,113.92 1190.99,113.92 1216.32,113.22 1250.09,111.11 
		1284.56,107.59 1314.1,103.37 1357.01,95.63 1387.26,89.3 1399.93,85.78 1402.04,83.67 1402.04,78.75 1398.52,75.23 1394.3,75.23 
		1371.79,80.15 1334.5,87.19 1299.33,92.81 1271.19,96.33 1240.94,99.15 1206.47,101.26 1162.86,101.26 1147.38,100.55 
		1119.24,98.44 1104.47,97.74 1101.65,100.55 1100.95,104.77 1103.06,108.29 	"/>
	<polygon points="94.28,81.56 86.54,86.48 80.21,89.3 67.55,92.11 61.92,92.11 61.22,84.37 59.11,78.04 56.29,75.23 51.37,75.23 
		47.85,78.75 47.85,84.37 49.26,87.89 49.26,92.81 47.15,99.85 41.52,108.99 42.23,113.22 44.34,115.33 49.96,116.03 50.67,115.33 
		57,108.29 57.7,104.77 73.18,104.77 74.59,112.51 74.59,120.25 72.47,120.95 49.26,123.77 46.45,126.58 46.45,131.51 47.15,132.91 
		49.26,135.02 57,135.73 74.59,133.62 73.18,137.84 68.96,148.39 63.33,158.24 58.41,163.87 55.59,168.09 55.59,172.31 
		58.41,175.12 64.03,175.12 66.85,173.01 73.88,164.57 78.81,156.13 83.03,146.98 86.54,135.02 86.54,129.4 87.95,129.4 
		102.72,121.66 113.28,114.62 120.31,108.29 120.31,103.37 117.5,99.85 112.57,99.85 106.24,104.07 98.5,109.7 87.25,116.03 
		87.25,113.92 85.14,99.85 86.54,99.85 95.69,95.63 106.24,87.89 109.06,84.37 108.35,78.75 104.83,76.64 100.61,76.64 	"/>
	<polygon points="173.77,42.16 192.06,37.24 210.36,33.02 216.69,33.02 218.09,33.72 221.61,36.54 221.61,45.68 218.09,59.75 
		218.09,70.3 219.5,74.52 223.72,80.86 230.05,85.08 236.38,86.48 250.45,86.48 256.08,85.78 270.15,82.97 283.52,78.04 
		294.77,72.41 307.43,64.68 316.58,56.94 321.5,51.31 321.5,47.09 318.69,43.57 313.77,43.57 308.84,47.79 297.59,56.23 
		289.85,61.16 277.89,66.79 265.23,71.01 251.86,73.82 239.9,74.52 232.87,73.12 230.05,68.9 230.05,61.86 234.27,43.57 
		233.57,34.43 230.05,27.39 225.83,23.87 218.8,21.06 207.54,21.06 189.25,25.28 169.55,30.91 167.44,33.72 166.74,38.65 
		169.55,41.46 	"/>
	<polygon points="1214.91,191.3 1231.09,188.49 1257.12,185.67 1298.63,184.97 1300.03,183.56 1301.44,180.05 1300.74,176.53 
		1298.63,174.42 1291.59,173.01 1257.82,173.01 1241.64,174.42 1225.46,176.53 1208.58,180.05 1205.77,182.86 1205.77,187.78 
		1209.28,191.3 	"/>
	<polygon points="1212.8,156.13 1233.2,152.61 1254.31,150.5 1294.4,150.5 1298.63,146.98 1298.63,142.76 1296.51,139.95 
		1293,138.54 1269.08,137.84 1250.79,138.54 1242.35,139.24 1220.54,142.06 1206.47,144.87 1203.66,146.98 1202.95,152.61 
		1205.77,156.13 	"/>
	<polygon points="1234.61,43.57 1242.35,49.9 1246.57,54.83 1250.09,61.86 1250.09,67.49 1248.68,71.01 1245.86,74.52 
		1242.35,78.04 1243.05,82.97 1245.86,85.78 1252.2,85.08 1256.42,81.56 1261.34,73.82 1262.75,67.49 1262.75,61.86 1260.64,54.12 
		1255.71,46.39 1248.68,39.35 1240.94,33.02 1231.09,26.69 1226.17,25.99 1222.65,29.5 1221.95,33.02 1224.06,35.83 	"/>
	<polygon points="19.01,59.05 40.82,57.64 62.63,54.83 83.03,50.61 97.8,46.39 99.91,44.28 100.61,40.76 97.8,37.24 92.88,37.24 
		90.06,37.94 68.25,42.87 47.85,46.39 27.45,48.5 14.79,49.9 13.38,51.31 13.38,56.94 14.09,57.64 	"/>
	<path d="M301.1,326.37l-0.7,0.7l-5.63,9.85l-5.63,5.63l-7.03,3.52l-8.44,2.11l-12.66,0.7l2.11-3.52l7.74-9.15l6.33-11.26
		l4.22-10.55l2.11-12.66v-14.07l-2.11-11.26l-3.52-9.15l-5.63-9.15l-7.74-7.74l-9.15-4.92l-8.44-2.81l-10.55-1.41h-8.44l-10.55,0.7
		l-18.29,2.11l-10.55,0.7l0.7-8.44l-2.11-3.52l-4.92-1.41l-4.22,2.81l-1.41,5.63v8.44h-1.41l-16.88,4.22l-14.07,4.22v-1.41
		l-3.52-9.15l-5.63-11.26l3.52-0.7l24.62-9.15l16.18-5.63l18.99-5.63l23.92-4.92l15.48-2.81l2.81-2.81v-4.92l-0.7-1.41l-3.52-2.11
		l-7.03,0.7l-21.81,3.52l-21.1,4.92l-13.37,4.22l-23.92,9.15l-21.81,7.74l-15.48,4.22l-27.44,4.92l-3.52,3.52v4.22l2.81,3.52h9.15
		l9.15-1.41l13.37-2.81l7.03-0.7l2.81,2.81l4.92,9.85l2.81,8.44h-1.41l-7.74,3.52l-11.26,5.63l-12.66,7.03l-10.55,7.03l-9.15,7.03
		l-7.74,6.33l-9.15,9.15l-5.63,7.03l-6.33,9.85l-4.92,11.96l-2.11,11.96l0.7,11.26l2.81,9.85l3.52,7.74l7.03,9.85l9.15,8.44
		l7.74,4.92l11.26,5.63l10.55,3.52l12.66,2.11h6.33l4.22-3.52v-4.92l-3.52-3.52l-15.48-2.11l-11.26-3.52l-9.85-4.92l-7.03-4.92
		l-6.33-6.33l-4.92-7.74l-3.52-8.44L57,354.51v-7.74l2.81-11.26l3.52-7.74l6.33-9.15l7.74-7.74l7.03-6.33l7.74-6.33l11.96-8.44
		l11.96-7.03l18.29-8.44l-2.11,11.96l-3.52,11.96l-4.22,9.15l-6.33,10.55l-5.63,6.33l-8.44,7.74l-13.37,8.44l-3.52,3.52l0.7,4.22
		l2.11,2.81h5.63l8.44-4.22l11.96-8.44l7.74-7.74l8.44-11.26l6.33-11.96l4.22-11.96l2.81-12.66v-13.37l6.33-2.11l17.59-4.92
		l5.63-0.7l0.7,9.15l1.41,9.15l2.81,7.74l4.22,6.33l7.03,6.33l5.63,2.81l7.74,2.11h8.44l4.22-0.7l7.74-2.81l7.74-5.63l4.92-6.33
		l3.52-8.44v-4.92l-2.11-2.81l-4.92-0.7l-2.81,2.11l-4.92,9.85l-5.63,4.92l-7.03,2.81h-8.44l-7.03-2.81l-4.92-4.22l-2.81-5.63
		l-2.11-7.74l-0.7-13.37l0.7-0.7l13.37-2.11l22.51-2.11h14.07l5.63,0.7l4.92,1.41l7.03,3.52l4.92,4.92l4.92,7.03l3.52,9.15
		l2.11,11.26v7.03l-0.7,5.63l-2.81,9.85l-3.52,8.44l-7.03,10.55l-4.92,5.63l-8.44,7.74h-16.18l-13.37-0.7h-18.29l-11.26,1.41
		l-11.96,3.52l-11.26,4.92l-7.03,4.92l-6.33,7.03l-2.11,6.33v4.92l1.41,4.22l4.22,4.92l5.63,2.81h12.66l11.26-2.11l14.77-4.22
		l16.88-6.33l18.99-9.15l14.07-8.44h28.84l10.55-2.11l7.03-3.52l6.33-4.92l6.33-7.03l4.22-8.44v-6.33l-1.41-1.41L301.1,326.37z
		 M222.31,361.54l-19.7,8.44l-21.81,7.03l-14.07,2.81h-7.03l-1.41-1.41v-4.22l3.52-4.22l9.15-5.63l12.66-4.22l7.03-1.41l7.03-0.7
		h17.59l9.85,0.7L222.31,361.54z"/>
	<polygon points="150.56,102.66 151.97,101.96 161.11,95.63 166.74,89.3 171.66,82.26 175.18,73.82 177.29,63.27 177.29,54.83 
		176.59,52.01 174.48,49.2 170.26,48.5 166.04,51.31 165.33,57.64 163.93,68.9 160.41,77.34 154.78,84.37 147.75,90 142.82,94.22 
		142.12,98.44 144.93,102.66 	"/>
	<polygon points="109.76,132.91 101.32,127.99 97.1,127.28 94.28,128.69 92.17,132.21 93.58,136.43 97.8,139.95 107.65,146.98 
		111.87,151.91 117.5,159.64 122.42,170.9 125.94,174.42 130.86,173.71 132.97,172.31 133.68,170.2 132.97,164.57 128.75,154.72 
		123.12,146.28 118.2,140.65 	"/>
	<path d="M312.36,98.44l-7.03,9.15l-8.44,7.74l-11.96,8.44l-11.26,5.63l-10.55,3.52l-11.96,2.11H240.6l-8.44-1.41l-13.37-4.22v-1.41
		l2.81-4.22l5.63-9.85l2.81-9.15v-4.92l-1.41-4.22l-2.81-3.52l-4.22-2.81l-8.44-2.11h-16.88l-8.44,1.41l-11.26,3.52l-3.52,3.52v4.92
		l2.11,2.81l4.22,0.7l4.92-1.41l11.26-2.81h18.29l4.22,1.41v2.81l-4.22,8.44l-4.92,7.74l-1.41,3.52l-10.55-3.52l-9.85-2.11h-6.33
		l-8.44,2.11l-6.33,4.22l-4.92,6.33l-2.11,6.33v7.03l0.7,2.81l2.81,5.63l6.33,5.63l5.63,2.11h7.03l3.52-0.7l8.44-4.22l7.74-6.33
		l7.74-8.44l3.52-0.7l9.85,3.52l15.48,3.52h17.59l4.22-0.7l9.15-2.11l13.37-4.92l12.66-7.03l10.55-7.74l4.92-4.92l7.74-8.44
		l7.03-9.15l4.22-7.74V90l-2.11-3.52l-4.92-0.7l-2.81,1.41L312.36,98.44z M198.4,135.73l-11.26,9.85l-6.33,2.81h-5.63l-3.52-3.52
		l-0.7-1.41v-4.92l2.11-4.22l5.63-3.52l2.11-0.7h6.33l8.44,2.11l2.81,1.41V135.73z"/>
	<path d="M357.38,206.07l4.22-3.52l4.92-7.03l2.81-7.74v-9.85l-0.7-2.81l-4.22-7.03l-0.7-3.52l1.41-1.41l8.44-7.74l9.15-6.33
		l11.96-5.63l18.29-6.33l23.92-6.33l28.14-5.63l26.03-3.52l30.25-2.11h54.17l17.59,0.7l27.44,2.11l16.18,2.11l14.07,2.81l16.18,4.92
		l9.15,4.22l6.33,4.22l4.22,5.63l2.11,7.03l-0.7,6.33l-2.81,4.92l-5.63,3.52h-8.44l-3.52-1.41l-4.22-4.92l-2.11-8.44l-4.22-3.52
		l-4.22,0.7l-2.81,2.81v7.74l0.7,2.11l3.52,7.03l5.63,5.63l4.92,2.81l8.44,2.11l8.44-0.7l5.63-2.11l5.63-4.22l4.92-6.33l2.81-9.15
		v-7.74l-0.7-4.22l-4.92-9.85l-5.63-5.63l-5.63-4.22l-11.26-5.63l-12.66-4.22l-16.18-3.52l-20.4-2.81l-27.44-2.11l-35.88-1.41h-21.1
		l-25.32,0.7l2.11-14.07l2.81-11.26l2.11-7.03l15.48-0.7l37.99-0.7l2.11-2.81l0.7-4.92l-2.81-3.52l-4.92-0.7h-41.5l4.92-7.03
		l6.33-6.33l7.74-6.33l11.96-6.33l2.11-2.11V28.1l-2.11-2.81l-3.52-0.7l-7.74,2.81l-10.55,6.33l-7.03,6.33l-8.44,9.15l-7.03,11.26
		l-1.41,3.52l-10.55,1.41l-20.4,4.22l-17.59,4.92l-4.22,2.81l0.7,6.33l2.11,2.11h5.63l30.95-7.03l7.03-0.7l-0.7,3.52l-3.52,18.29
		v8.44h-1.41l-38.69,4.92l-26.03,4.92l-19.7,4.92l-25.33,8.44l-14.77,7.03l-10.55,7.03l-7.74,7.74l-4.92,5.63l-1.41,2.81
		l-15.48-2.81l-16.88-1.41h-14.07l-27.44,1.41l-28.14,2.81l-25.33,4.22l-20.4,4.92l-19.7,6.33l-27.44,9.85l-28.14,9.15l-19.7,4.92
		l-14.07,2.11H77.4l-5.63-0.7l-10.55-2.81l-11.96-5.63l-8.44-6.33l-7.03-8.44l-4.92-9.15l-4.22-12.66l-2.81-17.59l-1.41-20.4
		l-1.41-39.39l-0.7-2.81l-2.11-1.41l-3.52-0.7l-3.52,1.41l-2.11,2.11v9.15l1.41,40.1l1.41,16.88l2.11,13.37l2.81,10.55l4.92,11.26
		l7.03,10.55l7.03,7.03l7.03,5.63l9.85,5.63l13.37,4.92l12.66,2.11h20.4l4.92-0.7l14.77-2.81l19.7-5.63l25.32-8.44l24.62-8.44
		l25.32-8.44l18.29-4.22l16.88-2.81l25.32-2.81l25.33-1.41h26.73l9.15,0.7l10.55,0.7l-1.41,3.52l-4.92,13.37v9.85l0.7,2.11
		l3.52,4.22l4.22,2.81h8.44L357.38,206.07z M349.64,196.23l-0.7-3.52l4.22-12.66l1.41-2.81l2.81,0.7l0.7,7.03l-2.81,6.33l-2.81,4.22
		L349.64,196.23z"/>
	<path d="M1412.59,243.36l-4.22-2.81l-4.22,0.7l-2.81,3.52l-7.03,10.55l-5.63,7.03l-6.33,7.74l-5.63,5.63l-8.44,7.74l-9.15,7.74
		l-11.96,9.15l-11.96,7.03l-9.85,3.52v-1.41l-5.63-10.55l-5.63-6.33l-7.03-6.33l-10.55-5.63l-9.15-2.11h-7.74l-6.33,1.41l-7.03,4.22
		l-2.81,3.52l-2.81,7.03v7.74l1.41,4.22l3.52,5.63l4.92,4.92l8.44,4.92l9.15,2.81l11.96,1.41h16.88v11.96l-1.41,6.33l-3.52,8.44
		l-6.33,9.85l-7.74,7.03l-9.15,6.33l-11.26,5.63l-11.26,4.22l-11.26,2.81h-18.29l-9.15-2.11l-11.96-4.92l-12.66-7.74l-9.85-8.44
		l-7.74-9.15l-5.63-10.55l-3.52-11.26v-14.77l0.7-3.52l3.52-11.26l5.63-11.96l7.03-10.55l7.74-7.74l9.15-7.03l8.44-4.22l11.26-3.52
		l9.85-1.41h18.29l11.96,1.41l11.96,2.81l10.55,3.52l13.37,6.33l5.63,0.7l2.11-1.41l2.11-4.22l-1.41-4.22l-3.52-3.52l-13.37-9.15
		l-10.55-5.63l-14.77-6.33l-14.07-4.22l-15.48-2.81l-18.29-1.41h-11.26l-24.62,1.41l-24.62,2.81l-26.03,4.22l-26.73,5.63
		l-17.59,4.92l-31.66,10.55l-21.1,7.74l-7.03-11.96l-6.33-9.15l-7.03-7.03l-8.44-7.74l-7.74-4.92l-11.26-5.63l-12.66-4.22
		l-16.18-2.81l-16.18-1.41h-61.2l2.11-23.92v-7.03h2.81l10.55-1.41l11.26-3.52l7.03-4.22l4.92-4.92l4.92-6.33l4.22-9.85l2.81-11.96
		v-11.96l-1.41-4.92l-3.52-7.03l-5.63-5.63l-6.33-4.22l-9.85-3.52l-10.55-1.41h-8.44l-7.03,0.7l-11.26,2.81l-9.85,4.92l-5.63,4.92
		l-2.81,1.41l-2.11-2.81l-6.33-5.63l-7.03-2.81h-6.33l-3.52,3.52v3.52l2.81,3.52l6.33,2.11l4.22,3.52l2.11,4.92v4.92l-6.33,14.07
		v4.92l0.7,2.11l2.81,4.22l4.22,2.11l5.63-0.7l4.92-4.22v-14.77l0.7-2.11l4.92-8.44l4.92-5.63l5.63-4.22l7.74-2.81l9.15-1.41h10.55
		l7.03,0.7l8.44,2.81l4.92,4.22l3.52,7.03v9.15l-2.81,11.96l-4.92,9.85l-5.63,4.92l-9.15,3.52l-12.66,2.11l0.7-11.96l2.81-1.41
		l8.44-3.52l4.92-4.22l3.52-5.63v-7.03l-0.7-2.11l-2.81-4.22l-7.03-3.52h-5.63l-3.52,1.41l-3.52,2.81l-4.22,5.63l-3.52,12.66
		l-6.33,2.81l-13.37,4.92l-5.63,4.22l-2.11,4.22v4.92l2.81,6.33l3.52,2.81l6.33,2.81l12.66,0.7v2.11l-2.81,28.14l-0.7,0.7
		l-22.51,1.41l-28.14,2.81l-28.84,4.22l-14.07,2.81v-10.55l-1.41-7.03l-4.92-9.85l-7.03-6.33l-8.44-3.52h-9.15l-2.81,0.7l-6.33,2.81
		l-4.92,4.22l-4.92,6.33l-2.81,7.03l-2.81,14.07l-1.41,18.99l-5.63,2.81l-20.4,10.55l-6.33,4.92v4.22l0.7,1.41l2.81,2.81h4.92
		l12.66-7.03l11.26-5.63l0.7,2.11v28.14l-21.81,9.85l-21.1,6.33l-16.18,2.81l-18.99,2.11h-24.62l-5.63-0.7l-13.37-2.81l-8.44-3.52
		l-9.85-5.63l-6.33-5.63l-6.33-7.03l-4.22-7.03l-2.81-3.52l-4.92-0.7l-2.11,1.41l-2.11,3.52l0.7,4.22l5.63,9.85l5.63,6.33l8.44,7.74
		l8.44,5.63l10.55,4.22l11.26,3.52l13.37,2.11h30.95l7.03-0.7l18.99-2.81l18.29-4.22l16.88-5.63l14.07-6.33v16.88l0.7,17.59
		l1.41,16.18l2.81,15.48l3.52,11.26l4.92,11.26l6.33,10.55l5.63,7.03l5.63,0.7l3.52-2.81v-5.63l-4.22-5.63l-5.63-9.85l-4.92-11.26
		l-3.52-13.37l-2.11-14.07l-1.41-20.4l-0.7-32.36h1.41l7.74-5.63l7.74-7.74l6.33-7.74l5.63-8.44l7.03-13.37l3.52-9.15l4.92-2.11
		l19.7-3.52l31.66-4.22l25.32-2.11l14.07-1.41l-0.7,4.22l-4.22,14.07l-5.63,11.96l-5.63,9.15L847,272.9l-8.44,4.92l-6.33-1.41
		l-14.07-2.81l-10.55,0.7l-10.55,2.81l-5.63,3.52l-3.52,5.63v7.03l3.52,4.92l4.92,2.11l8.44-0.7l18.29-3.52l9.85-2.81l5.63-0.7
		l13.37,7.03l10.55,3.52h14.77l9.15-2.11l9.85-3.52l16.18-8.44l9.85-7.74l4.92-5.63h1.41l2.81,4.22l7.03,7.74l7.03,5.63l9.15,4.92
		l6.33,0.7l3.52-3.52v-4.22l-2.11-2.81l-10.55-5.63l-7.03-6.33l-7.74-9.85v-3.52l0.7-0.7l0.7-4.22l-3.52-5.63h-7.03l-4.22,2.81
		l-2.11,7.74l-4.92,7.03l-5.63,4.92l-8.44,5.63l-13.37,6.33l-11.96,3.52l-8.44,0.7l-7.74-1.41l-9.85-4.22l2.11-2.11l7.03-6.33
		l6.33-7.03l4.92-7.74l5.63-11.26l4.22-12.66l2.81-13.37l68.24,0.7l13.37,1.41l11.26,2.11l10.55,3.52l9.85,4.92l9.15,6.33l6.33,6.33
		l6.33,7.03l6.33,9.15l2.81,7.03h-1.41l-12.66,4.92l-16.18,7.03l-11.26,6.33l-12.66,9.15l-9.85,9.85l-8.44,9.85l-5.63,7.03
		l-6.33,11.26l-4.92,11.26l-3.52,14.77v10.55l1.41,6.33l4.92,9.85l6.33,6.33l9.15,4.92l10.55,2.81h13.37l4.22-0.7l9.85-2.81
		l12.66-5.63l11.26-7.03l8.44-7.74l9.15-10.55l6.33-10.55l4.92-13.37L1051,332v-23.92l-0.7-5.63l-3.52-17.59l-0.7-5.63l17.59-6.33
		l26.03-9.15l26.03-7.03l25.32-5.63l28.14-4.22l28.84-2.81h37.28l15.48,2.11l-13.37,0.7l-13.37,2.11l-9.15,2.81l-8.44,4.22
		l-9.15,5.63l-6.33,5.63l-7.74,8.44l-8.44,11.96l-5.63,11.96l-2.81,8.44l-2.81,14.07v11.96l0.7,4.22l2.81,10.55l6.33,11.96
		l6.33,8.44l6.33,6.33l7.03,6.33l9.85,7.03l10.55,5.63l14.77,4.92l12.66,2.11h9.85l6.33-0.7l14.77-3.52l10.55-4.22l11.26-5.63
		l9.15-5.63l7.74-7.03l7.74-8.44l6.33-11.26l3.52-9.85l1.41-9.85v-12.66l5.63-2.11l9.85-4.92l11.26-7.03l11.96-9.15l7.74-6.33
		l13.37-13.37l7.74-8.44l5.63-7.03l7.03-9.85l3.52-7.03L1412.59,243.36z M1313.4,313.7H1293l-10.55-2.81l-6.33-4.22l-2.81-3.52
		l-1.41-3.52l0.7-4.92l4.22-3.52l1.41-0.7h10.55l8.44,3.52l5.63,4.22l6.33,6.33l4.22,7.03V313.7z M894.83,138.54l3.52,0.7
		l-2.11,3.52l-1.41,1.41h-2.11l-0.7-2.11L894.83,138.54z M760.47,246.17l-7.03,12.66l-6.33,8.44l-6.33,7.03l-4.92,3.52l-0.7-0.7
		v-27.44l23.92-7.74h2.81L760.47,246.17z M767.5,227.18l-4.92,2.11l-19.7,5.63l-5.63,2.11h-2.81l0.7-10.55l2.11-11.96l2.81-6.33
		l4.22-5.63l4.22-2.81l3.52-0.7l7.03,1.41l4.92,4.22l2.81,5.63l0.7,2.81V227.18z M877.95,169.49l-0.7,0.7h-12.66l-1.41-1.41
		l3.52-2.11l8.44-2.81h2.81V169.49z M1039.75,325.66l-2.11,14.77l-3.52,11.26l-5.63,11.26l-5.63,7.03l-4.22,4.92l-9.85,7.74
		l-11.26,6.33l-9.15,3.52l-6.33,1.41h-14.77l-8.44-2.81l-5.63-4.22l-2.81-3.52l-2.81-6.33l-0.7-3.52v-5.63l2.11-10.55l4.22-10.55
		l5.63-9.85l6.33-8.44l6.33-7.74l9.85-9.85l10.55-7.74l11.96-7.03l11.96-5.63l15.48-6.33l2.81,0.7l2.81,9.85l2.11,12.66l0.7,6.33
		V325.66z"/>
</g>
</svg>
