<?xml version="1.0" encoding="utf-8"?>
<!-- Generator: Adobe Illustrator 26.2.1, SVG Export Plug-In . SVG Version: 6.00 Build 0)  -->
<svg version="1.1" id="圖層_1" xmlns="http://www.w3.org/2000/svg" xmlns:xlink="http://www.w3.org/1999/xlink" x="0px" y="0px"
	 viewBox="0 0 1417.32 566.93" style="enable-background:new 0 0 1417.32 566.93;" xml:space="preserve">
<style type="text/css">
	.st0{fill:#231815;}
</style>
<g>
	<polygon class="st0" points="517.7,254.7 524.01,251.9 529.61,251.9 537.32,254 554.84,258.91 568.16,258.91 572.36,257.5 
		577.97,254 584.27,246.99 587.08,239.28 587.08,232.28 586.38,228.77 584.27,224.57 579.37,218.96 572.36,216.16 565.35,216.16 
		561.85,217.56 556.24,222.47 554.14,228.77 554.84,235.08 557.64,239.98 561.15,242.79 566.05,243.49 569.56,240.69 570.26,235.78 
		567.45,232.28 566.75,228.77 568.16,228.07 571.66,228.77 574.46,232.28 574.46,239.28 573.06,241.39 569.56,244.89 564.65,246.99 
		556.24,246.29 539.42,240.69 531.01,238.58 507.89,235.78 501.58,235.78 502.28,234.38 512.09,228.77 520.5,222.47 528.21,216.16 
		538.02,206.35 544.33,199.34 544.33,194.43 542.23,191.63 538.72,190.23 524.01,190.93 512.79,192.33 498.08,195.84 501.58,191.63 
		507.89,184.62 516.3,174.81 524.71,163.6 525.41,159.4 521.9,155.19 517,155.19 513.5,157.99 507.19,166.4 500.18,174.81 
		493.87,182.52 476.35,200.04 469.35,206.35 464.44,211.95 465.14,216.86 467.94,219.66 472.85,219.66 488.97,211.95 501.58,207.75 
		517.7,204.25 524.01,202.84 524.01,204.25 521.2,205.65 512.09,213.36 502.28,220.36 491.77,226.67 477.76,232.98 465.84,236.48 
		452.53,239.98 449.02,243.49 449.02,248.39 449.72,249.8 453.23,251.9 457.43,251.9 470.75,249.09 487.57,247.69 506.49,247.69 
		505.09,250.5 502.98,256.1 502.98,262.41 503.68,265.91 508.59,277.83 512.79,291.84 515.6,308.66 515.6,338.09 512.79,357.01 
		508.59,371.73 502.98,383.64 497.38,392.75 490.37,401.86 487.57,401.86 485.46,399.06 481.96,389.95 481.96,380.14 482.66,377.34 
		482.66,371.73 479.86,368.93 474.95,368.93 471.45,372.43 469.35,382.24 470.05,392.05 473.55,402.57 477.76,408.87 484.06,414.48 
		488.27,416.58 491.77,415.88 497.38,411.68 505.09,402.57 512.09,392.75 518.4,380.84 523.31,366.12 526.81,348.61 528.21,334.59 
		528.21,312.16 527.51,303.76 525.41,291.14 521.2,276.43 515.6,262.41 514.9,258.21 516.3,254.7 	"/>
	<polygon class="st0" points="762.97,94.92 765.77,105.44 765.77,112.44 761.57,123.66 762.27,129.96 764.37,131.36 768.58,132.07 
		772.08,129.26 774.18,125.06 778.39,115.95 782.59,108.94 787.5,104.03 802.22,99.13 826.74,92.12 854.07,85.81 874.4,82.31 
		899.62,79.51 929.76,78.11 969.7,78.11 983.72,79.51 994.93,82.31 1000.53,85.81 1003.34,90.02 1003.34,94.22 1000.53,97.73 
		992.13,104.03 980.21,110.34 973.91,114.55 973.2,118.75 976.01,122.96 980.91,123.66 995.63,116.65 1007.54,108.24 
		1012.45,103.33 1015.95,96.33 1015.95,87.92 1013.85,83.01 1009.65,77.4 1002.64,72.5 992.83,69 980.91,66.89 963.39,65.49 
		944.47,65.49 919.95,66.19 894.02,67.59 868.79,70.4 877.9,68.29 887.71,65.49 893.32,61.29 896.12,55.68 896.12,50.78 
		894.72,47.27 892.62,44.47 886.31,40.96 875.8,37.46 865.29,35.36 861.08,38.16 861.08,44.47 861.78,45.87 864.58,47.27 
		883.51,52.88 882.1,54.28 860.38,59.89 823.24,71.1 807.82,76.7 796.61,82.31 784.7,90.02 779.09,94.92 776.29,96.33 773.48,87.92 
		769.28,78.81 766.48,76 761.57,76.7 758.77,78.81 758.07,83.01 760.17,88.62 	"/>
	<polygon class="st0" points="462.34,333.89 460.94,326.88 460.94,313.57 465.14,303.05 471.45,293.24 477.05,289.04 482.66,286.24 
		489.67,283.43 489.67,279.93 488.97,279.23 485.46,277.83 484.76,273.62 483.36,272.92 467.94,272.92 449.72,275.02 439.91,277.13 
		431.5,281.33 418.89,290.44 411.18,298.85 405.58,310.06 403.47,318.47 401.37,324.78 397.17,333.89 392.26,339.5 384.55,345.1 
		376.84,347.9 369.84,347.9 360.73,345.8 353.02,340.9 349.51,340.2 348.81,345.1 353.02,353.51 358.62,359.82 365.63,365.42 
		374.04,369.63 383.85,371.73 390.16,371.73 390.86,371.03 391.56,366.12 387.36,365.42 375.44,362.62 367.03,358.42 361.43,353.51 
		365.63,354.21 375.44,354.91 378.95,354.21 385.25,352.11 395.76,346.5 402.77,343.7 397.87,350.71 397.17,354.91 399.27,354.91 
		404.87,350.71 415.39,342.3 418.89,340.2 417.49,350.01 418.19,352.81 420.29,352.81 425.9,345.8 434.31,334.59 436.41,333.89 
		436.41,345.8 438.51,346.5 442.02,344.4 446.92,341.6 447.62,351.41 446.92,355.61 442.72,360.52 435.01,366.12 430.1,367.53 
		432.91,364.02 437.81,355.61 438.51,351.41 437.11,349.31 433.61,350.01 426.6,355.61 416.79,361.92 407.68,364.72 395.06,366.12 
		395.76,371.03 400.67,371.73 408.38,371.73 407.68,375.94 409.08,378.04 417.49,378.04 425.9,376.64 433.61,373.83 443.42,368.93 
		448.32,364.72 456.03,356.31 460.24,348.61 462.34,340.2 	"/>
	<polygon class="st0" points="1103.55,121.55 1116.16,122.96 1147.7,125.06 1173.63,125.76 1187.64,125.76 1212.87,125.06 
		1246.51,122.96 1280.85,119.45 1310.28,115.25 1353.03,107.54 1383.16,101.23 1395.77,97.73 1397.88,95.62 1397.88,90.72 
		1394.37,87.22 1390.17,87.22 1367.74,92.12 1330.6,99.13 1295.56,104.73 1267.53,108.24 1237.4,111.04 1203.06,113.14 
		1159.61,113.14 1144.19,112.44 1116.16,110.34 1101.45,109.64 1098.64,112.44 1097.94,116.65 1100.05,120.15 	"/>
	<polygon class="st0" points="95.13,93.52 87.42,98.43 81.12,101.23 68.5,104.03 62.9,104.03 62.19,96.33 60.09,90.02 57.29,87.22 
		52.38,87.22 48.88,90.72 48.88,96.33 50.28,99.83 50.28,104.73 48.18,111.74 42.57,120.85 43.27,125.06 45.38,127.16 50.98,127.86 
		51.68,127.16 57.99,120.15 58.69,116.65 74.11,116.65 75.51,124.36 75.51,132.07 73.41,132.77 50.28,135.57 47.48,138.37 
		47.48,143.28 48.18,144.68 50.28,146.78 57.99,147.48 75.51,145.38 74.11,149.58 69.9,160.1 64.3,169.91 59.39,175.51 
		56.59,179.72 56.59,183.92 59.39,186.73 65,186.73 67.8,184.62 74.81,176.21 79.71,167.8 83.92,158.69 87.42,146.78 87.42,141.18 
		88.82,141.18 103.54,133.47 114.05,126.46 121.06,120.15 121.06,115.25 118.26,111.74 113.35,111.74 107.04,115.95 99.34,121.55 
		88.12,127.86 88.12,125.76 86.02,111.74 87.42,111.74 96.53,107.54 107.04,99.83 109.85,96.33 109.15,90.72 105.64,88.62 
		101.44,88.62 	"/>
	<polygon class="st0" points="174.32,54.28 192.54,49.37 210.76,45.17 217.07,45.17 218.47,45.87 221.97,48.67 221.97,57.78 
		218.47,71.8 218.47,82.31 219.87,86.51 224.07,92.82 230.38,97.03 236.69,98.43 250.7,98.43 256.31,97.73 270.33,94.92 
		283.64,90.02 294.85,84.41 307.47,76.7 316.58,69 321.48,63.39 321.48,59.18 318.68,55.68 313.77,55.68 308.87,59.89 297.66,68.29 
		289.95,73.2 278.03,78.81 265.42,83.01 252.11,85.81 240.19,86.51 233.18,85.11 230.38,80.91 230.38,73.9 234.59,55.68 
		233.89,46.57 230.38,39.56 226.18,36.06 219.17,33.26 207.96,33.26 189.74,37.46 170.11,43.07 168.01,45.87 167.31,50.78 
		170.11,53.58 	"/>
	<polygon class="st0" points="1211.47,202.84 1227.59,200.04 1253.52,197.24 1294.86,196.54 1296.26,195.14 1297.66,191.63 
		1296.96,188.13 1294.86,186.03 1287.85,184.62 1254.22,184.62 1238.1,186.03 1221.98,188.13 1205.16,191.63 1202.36,194.43 
		1202.36,199.34 1205.86,202.84 	"/>
	<polygon class="st0" points="1209.37,167.8 1229.69,164.3 1250.71,162.2 1290.66,162.2 1294.86,158.69 1294.86,154.49 
		1292.76,151.69 1289.26,150.29 1265.43,149.58 1247.21,150.29 1238.8,150.99 1217.07,153.79 1203.06,156.59 1200.26,158.69 
		1199.56,164.3 1202.36,167.8 	"/>
	<polygon class="st0" points="1231.09,55.68 1238.8,61.99 1243,66.89 1246.51,73.9 1246.51,79.51 1245.11,83.01 1242.3,86.51 
		1238.8,90.02 1239.5,94.92 1242.3,97.73 1248.61,97.03 1252.81,93.52 1257.72,85.81 1259.12,79.51 1259.12,73.9 1257.02,66.19 
		1252.11,58.48 1245.11,51.48 1237.4,45.17 1227.59,38.86 1222.68,38.16 1219.18,41.67 1218.48,45.17 1220.58,47.97 	"/>
	<polygon class="st0" points="20.15,71.1 41.87,69.7 63.6,66.89 83.92,62.69 98.64,58.48 100.74,56.38 101.44,52.88 98.64,49.37 
		93.73,49.37 90.93,50.07 69.2,54.98 48.88,58.48 28.56,60.59 15.94,61.99 14.54,63.39 14.54,69 15.24,69.7 	"/>
	<path class="st0" d="M301.16,337.39l-0.7,0.7l-5.61,9.81l-5.61,5.61l-7.01,3.5l-8.41,2.1l-12.61,0.7l2.1-3.5l7.71-9.11l6.31-11.21
		l4.2-10.51l2.1-12.61v-14.02l-2.1-11.21l-3.5-9.11l-5.61-9.11l-7.71-7.71l-9.11-4.91l-8.41-2.8l-10.51-1.4h-8.41l-10.51,0.7
		l-18.22,2.1l-10.51,0.7l0.7-8.41l-2.1-3.5l-4.91-1.4l-4.2,2.8l-1.4,5.61v8.41h-1.4l-16.82,4.2l-14.02,4.2v-1.4l-3.5-9.11
		l-5.61-11.21l3.5-0.7l24.53-9.11l16.12-5.61l18.92-5.61l23.83-4.91l15.42-2.8l2.8-2.8v-4.91l-0.7-1.4l-3.5-2.1l-7.01,0.7
		l-21.72,3.5l-21.02,4.91l-13.31,4.2l-23.83,9.11l-21.72,7.71l-15.42,4.2l-27.33,4.91l-3.5,3.5v4.2l2.8,3.5h9.11l9.11-1.4l13.31-2.8
		l7.01-0.7l2.8,2.8l4.91,9.81l2.8,8.41h-1.4l-7.71,3.5l-11.21,5.61l-12.61,7.01l-10.51,7.01l-9.11,7.01l-7.71,6.31l-9.11,9.11
		l-5.61,7.01l-6.31,9.81l-4.91,11.91l-2.1,11.91l0.7,11.21l2.8,9.81l3.5,7.71l7.01,9.81l9.11,8.41l7.71,4.91l11.21,5.61l10.51,3.5
		l12.61,2.1h6.31l4.2-3.5v-4.91l-3.5-3.5l-15.42-2.1l-11.21-3.5l-9.81-4.91l-7.01-4.91l-6.31-6.31l-4.91-7.71l-3.5-8.41l-1.4-7.01
		v-7.71l2.8-11.21l3.5-7.71l6.31-9.11l7.71-7.71l7.01-6.31l7.71-6.31l11.91-8.41l11.91-7.01l18.22-8.41l-2.1,11.91l-3.5,11.91
		l-4.2,9.11l-6.31,10.51l-5.61,6.31l-8.41,7.71l-13.31,8.41l-3.5,3.5l0.7,4.2l2.1,2.8h5.61l8.41-4.2l11.91-8.41l7.71-7.71
		l8.41-11.21l6.31-11.91l4.2-11.91l2.8-12.61v-13.31l6.31-2.1l17.52-4.91l5.61-0.7l0.7,9.11l1.4,9.11l2.8,7.71l4.2,6.31l7.01,6.31
		l5.61,2.8l7.71,2.1h8.41l4.2-0.7l7.71-2.8l7.71-5.61l4.91-6.31l3.5-8.41v-4.91l-2.1-2.8l-4.91-0.7l-2.8,2.1l-4.91,9.81l-5.61,4.91
		l-7.01,2.8h-8.41l-7.01-2.8l-4.91-4.2l-2.8-5.61l-2.1-7.71l-0.7-13.31l0.7-0.7l13.31-2.1l22.42-2.1h14.02l5.61,0.7l4.91,1.4
		l7.01,3.5l4.91,4.91l4.91,7.01l3.5,9.11l2.1,11.21v7.01l-0.7,5.61l-2.8,9.81l-3.5,8.41l-7.01,10.51l-4.91,5.61l-8.41,7.71h-16.12
		l-13.31-0.7h-18.22l-11.21,1.4l-11.91,3.5l-11.21,4.91l-7.01,4.91l-6.31,7.01l-2.1,6.31v4.91l1.4,4.2l4.2,4.91l5.61,2.8h12.61
		l11.21-2.1l14.72-4.2l16.82-6.31l18.92-9.11l14.02-8.41h28.73l10.51-2.1l7.01-3.5l6.31-4.91l6.31-7.01l4.2-8.41v-6.31l-1.4-1.4
		L301.16,337.39z M222.67,372.43l-19.62,8.41l-21.72,7.01l-14.02,2.8h-7.01l-1.4-1.4v-4.2l3.5-4.2l9.11-5.61l12.61-4.2l7.01-1.4
		l7.01-0.7h17.52l9.81,0.7L222.67,372.43z"/>
	<polygon class="st0" points="151.19,114.55 152.6,113.85 161.71,107.54 167.31,101.23 172.22,94.22 175.72,85.81 177.82,75.3 
		177.82,66.89 177.12,64.09 175.02,61.29 170.82,60.59 166.61,63.39 165.91,69.7 164.51,80.91 161,89.32 155.4,96.33 148.39,101.93 
		143.48,106.14 142.78,110.34 145.59,114.55 	"/>
	<polygon class="st0" points="110.55,144.68 102.14,139.77 97.93,139.07 95.13,140.47 93.03,143.98 94.43,148.18 98.64,151.69 
		108.45,158.69 112.65,163.6 118.26,171.31 123.16,182.52 126.67,186.03 131.57,185.32 133.67,183.92 134.37,181.82 133.67,176.21 
		129.47,166.4 123.86,157.99 118.96,152.39 	"/>
	<path class="st0" d="M950.08,512.59l-6.31,3.5l-9.81,3.5l-12.61,2.1h-21.72l-12.61-2.8l-11.91-5.61l-8.41-6.31l-5.61-7.01l-0.7-3.5
		l3.5-4.2l9.81-10.51l9.11-12.61l5.61-10.51l2.8-7.71v-4.91l-1.4-4.2l-3.5-2.8l-6.31-0.7l-3.5,0.7l-8.41,4.2l-7.01,7.01l-4.2,5.61
		l-5.61,11.21l-2.1,10.51v16.12l-2.1,2.1l-10.51,7.01l-6.31,3.5l-6.31,2.1l6.31-3.5l5.61-4.2v-6.31l-2.8-2.1h-6.31l-4.2,1.4
		l-5.61,2.8l-4.91,4.2l-2.8,4.2l-4.91,1.4l-16.12,3.5h-9.81l5.61-3.5l6.31-4.2l4.91-6.31v-5.61l-1.4-2.1l-3.5-2.1h-7.71l-4.91,2.1
		l-5.61,4.2l-4.91,7.71l-2.1,5.61l-11.21,3.5l-16.12,3.5l0.7-1.4l3.5-12.61v-6.31l-0.7-1.4l-2.8-1.4h-4.91l-1.4,0.7l-9.11,6.31
		l-5.61,4.91l1.4-6.31l-0.7-3.5l-2.8-2.8h-5.61l-3.5,1.4l-0.7-4.2l-3.5-0.7l-4.2,2.8l-9.11,9.11l-7.01,6.31l-7.01,5.61l-7.01,3.5
		h-4.91l-0.7-0.7v-5.61l1.4-3.5l4.2-7.01l2.1-4.2l-3.5-4.91l-3.5,0.7l-2.8,3.5l-5.61,6.31l-7.01,6.31l-8.41,5.61l-8.41,2.8l0.7-4.91
		l1.4-3.5l5.61-9.81l0.7-4.91l-2.1-2.8l-4.91,0.7l-2.1,2.8l-4.91,7.01l-11.21,11.21l-7.01,5.61l-6.31,3.5l-4.91,0.7l-1.4-1.4v-7.01
		l2.8-9.81l4.2-9.11l4.2-7.01l3.5-3.5l21.72-2.8l14.02-2.1l3.5-2.1v-3.5l-1.4-2.8h-6.31l-9.11,1.4l-17.52,2.8l1.4-2.8l0.7-4.91
		l-2.1-2.8l-4.91,0.7l-2.1,2.1l-5.61,8.41l-8.41,1.4l-21.02,4.2l-8.41,3.5l-0.7,2.8l2.1,2.8h3.5l12.61-2.8l14.72-2.8l-0.7,2.1
		l-6.31,8.41l-8.41,9.81l-4.91,5.61l-5.61,4.91l-7.71,6.31l-9.81,7.01l-6.31,2.1v-2.8l3.5-11.91l2.1-11.21l-0.7-4.2l-2.8-2.8h-7.01
		l-7.01,3.5l-7.71,5.61l-3.5,2.1l-0.7-9.11l-1.4-3.5l-3.5-2.8l-7.01-2.1l-3.5,0.7l-9.11,2.8l-11.21,5.61l-11.21,7.71l-7.71,7.01
		l-4.91,7.71v4.91l1.4,1.4l4.91,1.4l2.1-2.1l1.4-7.01l7.71-7.01l9.11-6.31l7.01-3.5l9.81-3.5h8.41l-0.7,7.01l-2.1,7.01l-2.8,5.61
		l-4.91,4.91l-4.91,5.61l-7.71,9.11l-4.91,7.71v4.2l2.8,2.8h3.5l2.1-1.4l7.71-8.41l8.41-11.91l6.31-7.71l9.81-8.41l11.21-8.41
		l4.91-2.8l-6.31,21.02v6.31l0.7,2.1l2.1,2.8l4.91,2.1l4.2-0.7l6.31-2.8l7.01-4.2l9.81-7.71l8.41-8.41l5.61-4.91v11.21l0.7,2.1
		l5.61,4.91h9.11l4.2-1.4l5.61-3.5l11.21-8.41l1.4,4.2l4.2,3.5h7.01l2.1-0.7l8.41-4.2l7.71-4.91l0.7,4.2l2.8,4.91l4.91,2.1h6.31
		l7.71-2.8l6.31-4.2l3.5-1.4l-0.7,4.91l1.4,1.4l4.2,1.4l2.8-2.8l7.01-9.11l7.01-7.71v2.1l-2.8,7.01v4.91l1.4,2.1l4.2,1.4l4.2-2.1
		l7.01-6.31l5.61-4.91l4.91-4.91l-1.4,7.01v9.81l3.5,2.8h12.61l14.72-4.2l7.01-1.4l1.4,1.4l6.31,2.8h10.51l4.2-0.7l18.22-3.5
		l1.4,2.1l4.2,2.1h5.61l9.81-2.8l7.71-3.5l9.81-6.31l6.31-3.5l2.1,4.2l4.91,6.31l7.01,5.61l10.51,5.61l12.61,4.2l11.21,2.1h16.12
		l12.61-1.4l12.61-3.5l5.61-2.8l7.71-2.8l1.4-1.4l0.7-3.5l-4.2-2.8H950.08z M858.28,486.66l-1.4-0.7v-6.31l2.8-11.91l4.2-7.71
		l5.61-7.01l4.91-4.2l6.31-2.8l2.8,0.7l-1.4,6.31l-5.61,10.51l-7.01,9.81l-6.31,7.71L858.28,486.66z"/>
	<path class="st0" d="M312.37,110.34l-7.01,9.11l-8.41,7.71l-11.91,8.41l-11.21,5.61l-10.51,3.5l-11.91,2.1h-10.51l-8.41-1.4
		l-13.31-4.2v-1.4l2.8-4.2l5.61-9.81l2.8-9.11v-4.91l-1.4-4.2l-2.8-3.5l-4.2-2.8l-8.41-2.1h-16.82l-8.41,1.4l-11.21,3.5l-3.5,3.5
		v4.91l2.1,2.8l4.2,0.7l4.91-1.4l11.21-2.8h18.22l4.2,1.4v2.8l-4.2,8.41l-4.91,7.71l-1.4,3.5l-10.51-3.5l-9.81-2.1h-6.31l-8.41,2.1
		l-6.31,4.2l-4.91,6.31l-2.1,6.31v7.01l0.7,2.8l2.8,5.61l6.31,5.61l5.61,2.1h7.01l3.5-0.7l8.41-4.2l7.71-6.31l7.71-8.41l3.5-0.7
		l9.81,3.5l15.42,3.5h17.52l4.2-0.7l9.11-2.1l13.31-4.91l12.61-7.01l10.51-7.71l4.91-4.91l7.71-8.41l7.01-9.11l4.2-7.71v-4.2
		l-2.1-3.5l-4.91-0.7l-2.8,1.4L312.37,110.34z M198.85,147.48l-11.21,9.81l-6.31,2.8h-5.61l-3.5-3.5l-0.7-1.4v-4.91l2.1-4.2
		l5.61-3.5l2.1-0.7h6.31l8.41,2.1l2.8,1.4V147.48z"/>
	<path class="st0" d="M357.22,217.56l4.2-3.5l4.91-7.01l2.8-7.71v-9.81l-0.7-2.8l-4.2-7.01l-0.7-3.5l1.4-1.4l8.41-7.71l9.11-6.31
		l11.91-5.61l18.22-6.31l23.83-6.31l28.03-5.61l25.93-3.5l30.13-2.1h53.96l17.52,0.7l27.33,2.1l16.12,2.1l14.02,2.8l16.12,4.91
		l9.11,4.2l6.31,4.2l4.2,5.61l2.1,7.01l-0.7,6.31l-2.8,4.91l-5.61,3.5h-8.41l-3.5-1.4l-4.2-4.91l-2.1-8.41l-4.2-3.5l-4.2,0.7
		l-2.8,2.8v7.71l0.7,2.1l3.5,7.01l5.61,5.61l4.91,2.8l8.41,2.1l8.41-0.7l5.61-2.1l5.61-4.2l4.91-6.31l2.8-9.11v-7.71l-0.7-4.2
		l-4.91-9.81l-5.61-5.61l-5.61-4.2l-11.21-5.61l-12.61-4.2l-16.12-3.5l-20.32-2.8l-27.33-2.1l-35.74-1.4h-21.02l-25.23,0.7
		l2.1-14.02l2.8-11.21l2.1-7.01l15.42-0.7l37.84-0.7l2.1-2.8l0.7-4.91l-2.8-3.5l-4.91-0.7h-41.35l4.91-7.01l6.31-6.31l7.71-6.31
		l11.91-6.31l2.1-2.1v-5.61l-2.1-2.8l-3.5-0.7l-7.71,2.8l-10.51,6.31l-7.01,6.31l-8.41,9.11L513.5,72.5l-1.4,3.5l-10.51,1.4
		l-20.32,4.2l-17.52,4.91l-4.2,2.8l0.7,6.31l2.1,2.1h5.61l30.83-7.01l7.01-0.7l-0.7,3.5l-3.5,18.22v8.41h-1.4l-38.54,4.91
		l-25.93,4.91l-19.62,4.91l-25.23,8.41l-14.72,7.01l-10.51,7.01l-7.71,7.71l-4.91,5.61l-1.4,2.8l-15.42-2.8l-16.82-1.4h-14.02
		l-27.33,1.4l-28.03,2.8l-25.23,4.2l-20.32,4.91l-19.62,6.31l-27.33,9.81l-28.03,9.11l-19.62,4.91l-14.02,2.1H78.31l-5.61-0.7
		l-10.51-2.8l-11.91-5.61l-8.41-6.31l-7.01-8.41l-4.91-9.11l-4.2-12.61l-2.8-17.52l-1.4-20.32l-1.4-39.24l-0.7-2.8l-2.1-1.4
		l-3.5-0.7l-3.5,1.4l-2.1,2.1v9.11l1.4,39.94l1.4,16.82l2.1,13.31l2.8,10.51l4.91,11.21l7.01,10.51l7.01,7.01l7.01,5.61l9.81,5.61
		L65,225.27l12.61,2.1h20.32l4.91-0.7l14.72-2.8l19.62-5.61l25.23-8.41l24.53-8.41l25.23-8.41l18.22-4.2l16.82-2.8l25.23-2.8
		l25.23-1.4h26.63l9.11,0.7l10.51,0.7l-1.4,3.5l-4.91,13.31v9.81l0.7,2.1l3.5,4.2l4.2,2.8h8.41L357.22,217.56z M349.51,207.75
		l-0.7-3.5l4.2-12.61l1.4-2.8l2.8,0.7l0.7,7.01l-2.8,6.31l-2.8,4.2L349.51,207.75z"/>
	<path class="st0" d="M1408.39,254.7l-4.2-2.8l-4.2,0.7l-2.8,3.5l-7.01,10.51l-5.61,7.01l-6.31,7.71l-5.61,5.61l-8.41,7.71
		l-9.11,7.71l-11.91,9.11l-11.91,7.01l-9.81,3.5v-1.4l-5.61-10.51l-5.61-6.31l-7.01-6.31l-10.51-5.61l-9.11-2.1h-7.71l-6.31,1.4
		l-7.01,4.2l-2.8,3.5l-2.8,7.01v7.71l1.4,4.2l3.5,5.61l4.91,4.91l8.41,4.91l9.11,2.8l11.91,1.4h16.82v11.91l-1.4,6.31l-3.5,8.41
		l-6.31,9.81l-7.71,7.01l-9.11,6.31l-11.21,5.61l-11.21,4.2l-11.21,2.8h-18.22l-9.11-2.1l-11.91-4.91l-12.61-7.71l-9.81-8.41
		l-7.71-9.11l-5.61-10.51l-3.5-11.21v-14.72l0.7-3.5l3.5-11.21l5.61-11.91l7.01-10.51l7.71-7.71l9.11-7.01l8.41-4.2l11.21-3.5
		l9.81-1.4h18.22l11.91,1.4l11.91,2.8l10.51,3.5l13.31,6.31l5.61,0.7l2.1-1.4l2.1-4.2l-1.4-4.2l-3.5-3.5l-13.31-9.11l-10.51-5.61
		l-14.72-6.31l-14.02-4.2l-15.42-2.8l-18.22-1.4h-11.21l-24.53,1.4l-24.53,2.8l-25.93,4.2l-26.63,5.61l-17.52,4.91l-31.53,10.51
		l-21.02,7.71l-7.01-11.91l-6.31-9.11l-7.01-7.01l-8.41-7.71l-7.71-4.91l-11.21-5.61l-12.61-4.2l-16.12-2.8l-16.12-1.4h-60.97
		l2.1-23.83v-7.01h2.8l10.51-1.4l11.21-3.5l7.01-4.2l4.91-4.91l4.91-6.31l4.2-9.81l2.8-11.91v-11.91l-1.4-4.91l-3.5-7.01l-5.61-5.61
		l-6.31-4.2l-9.81-3.5l-10.51-1.4h-8.41l-7.01,0.7l-11.21,2.8l-9.81,4.91l-5.61,4.91l-2.8,1.4l-2.1-2.8l-6.31-5.61l-7.01-2.8h-6.31
		l-3.5,3.5v3.5l2.8,3.5l6.31,2.1l4.2,3.5l2.1,4.91v4.91l-6.31,14.02v4.91l0.7,2.1l2.8,4.2l4.2,2.1l5.61-0.7l4.91-4.2v-14.72l0.7-2.1
		l4.91-8.41l4.91-5.61l5.61-4.2l7.71-2.8l9.11-1.4h10.51l7.01,0.7l8.41,2.8l4.91,4.2l3.5,7.01v9.11l-2.8,11.91l-4.91,9.81
		l-5.61,4.91l-9.11,3.5l-12.61,2.1l0.7-11.91l2.8-1.4l8.41-3.5l4.91-4.2l3.5-5.61v-7.01l-0.7-2.1l-2.8-4.2l-7.01-3.5h-5.61l-3.5,1.4
		l-3.5,2.8l-4.2,5.61l-3.5,12.61l-6.31,2.8l-13.31,4.91l-5.61,4.2l-2.1,4.2v4.91l2.8,6.31l3.5,2.8l6.31,2.8l12.61,0.7v2.1
		l-2.8,28.03l-0.7,0.7l-22.42,1.4l-28.03,2.8l-28.73,4.2l-14.02,2.8v-10.51l-1.4-7.01l-4.91-9.81l-7.01-6.31l-8.41-3.5h-9.11
		l-2.8,0.7l-6.31,2.8l-4.91,4.2l-4.91,6.31l-2.8,7.01l-2.8,14.02l-1.4,18.92l-5.61,2.8L695,266.61l-6.31,4.91v4.2l0.7,1.4l2.8,2.8
		h4.91l12.61-7.01l11.21-5.61l0.7,2.1v28.03l-21.72,9.81l-21.02,6.31l-16.12,2.8l-18.92,2.1h-24.53l-5.61-0.7l-13.31-2.8l-8.41-3.5
		l-9.81-5.61l-6.31-5.61l-6.31-7.01l-4.2-7.01l-2.8-3.5l-4.91-0.7l-2.1,1.4l-2.1,3.5l0.7,4.2l5.61,9.81l5.61,6.31l8.41,7.71
		l8.41,5.61l10.51,4.2l11.21,3.5l13.31,2.1h30.83l7.01-0.7l18.92-2.8l18.22-4.2l16.82-5.61l14.02-6.31v16.82l0.7,17.52l1.4,16.12
		l2.8,15.42l3.5,11.21l4.91,11.21l6.31,10.51l5.61,7.01l5.61,0.7l3.5-2.8v-5.61l-4.2-5.61l-5.61-9.81l-4.91-11.21l-3.5-13.31
		l-2.1-14.02l-1.4-20.32l-0.7-32.24h1.4l7.71-5.61l7.71-7.71l6.31-7.71l5.61-8.41l7.01-13.31l3.5-9.11l4.91-2.1l19.62-3.5l31.53-4.2
		l25.23-2.1l14.02-1.4l-0.7,4.2l-4.2,14.02l-5.61,11.91l-5.61,9.11l-8.41,7.71l-8.41,4.91l-6.31-1.4l-14.02-2.8l-10.51,0.7
		l-10.51,2.8l-5.61,3.5l-3.5,5.61v7.01l3.5,4.91l4.91,2.1l8.41-0.7l18.22-3.5l9.81-2.8l5.61-0.7l13.31,7.01l10.51,3.5h14.72
		l9.11-2.1l9.81-3.5l16.12-8.41l9.81-7.71l4.91-5.61h1.4l2.8,4.2l7.01,7.71l7.01,5.61l9.11,4.91l6.31,0.7l3.5-3.5v-4.2l-2.1-2.8
		l-10.51-5.61l-7.01-6.31l-7.71-9.81v-3.5l0.7-0.7l0.7-4.2l-3.5-5.61h-7.01l-4.2,2.8l-2.1,7.71l-4.91,7.01l-5.61,4.91l-8.41,5.61
		l-13.31,6.31l-11.91,3.5l-8.41,0.7l-7.71-1.4l-9.81-4.2l2.1-2.1l7.01-6.31l6.31-7.01l4.91-7.71l5.61-11.21l4.2-12.61l2.8-13.31
		l67.98,0.7l13.31,1.4l11.21,2.1l10.51,3.5l9.81,4.91l9.11,6.31l6.31,6.31l6.31,7.01l6.31,9.11l2.8,7.01h-1.4l-12.61,4.91
		l-16.12,7.01l-11.21,6.31l-12.61,9.11l-9.81,9.81l-8.41,9.81l-5.61,7.01l-6.31,11.21l-4.91,11.21l-3.5,14.72v10.51l1.4,6.31
		l4.91,9.81l6.31,6.31l9.11,4.91l10.51,2.8h13.31l4.2-0.7l9.81-2.8l12.61-5.61l11.21-7.01l8.41-7.71l9.11-10.51l6.31-10.51
		l4.91-13.31l2.8-15.42v-23.83l-0.7-5.61l-3.5-17.52l-0.7-5.61l17.52-6.31l25.93-9.11l25.93-7.01l25.23-5.61l28.03-4.2l28.73-2.8
		h37.14l15.42,2.1l-13.31,0.7l-13.31,2.1l-9.11,2.8l-8.41,4.2l-9.11,5.61l-6.31,5.61l-7.71,8.41l-8.41,11.91l-5.61,11.91l-2.8,8.41
		l-2.8,14.02v11.91l0.7,4.2l2.8,10.51l6.31,11.91l6.31,8.41l6.31,6.31l7.01,6.31l9.81,7.01l10.51,5.61l14.72,4.91l12.61,2.1h9.81
		l6.31-0.7l14.72-3.5l10.51-4.2l11.21-5.61l9.11-5.61l7.71-7.01l7.71-8.41l6.31-11.21l3.5-9.81l1.4-9.81v-12.61l5.61-2.1l9.81-4.91
		l11.21-7.01l11.91-9.11l7.71-6.31l13.31-13.31l7.71-8.41l5.61-7.01l7.01-9.81l3.5-7.01L1408.39,254.7z M1309.58,324.78h-20.32
		l-10.51-2.8l-6.31-4.2l-2.8-3.5l-1.4-3.5l0.7-4.91l4.2-3.5l1.4-0.7h10.51l8.41,3.5l5.61,4.2l6.31,6.31l4.2,7.01V324.78z
		 M892.62,150.29l3.5,0.7l-2.1,3.5l-1.4,1.4h-2.1l-0.7-2.1L892.62,150.29z M758.77,257.5l-7.01,12.61l-6.31,8.41l-6.31,7.01
		l-4.91,3.5l-0.7-0.7v-27.33l23.83-7.71h2.8L758.77,257.5z M765.77,238.58l-4.91,2.1l-19.62,5.61l-5.61,2.1h-2.8l0.7-10.51
		l2.1-11.91l2.8-6.31l4.2-5.61l4.2-2.8l3.5-0.7l7.01,1.4l4.91,4.2l2.8,5.61l0.7,2.8V238.58z M875.8,181.12l-0.7,0.7h-12.61l-1.4-1.4
		l3.5-2.1l8.41-2.8h2.8V181.12z M1036.98,336.69l-2.1,14.72l-3.5,11.21l-5.61,11.21l-5.61,7.01l-4.2,4.91l-9.81,7.71l-11.21,6.31
		l-9.11,3.5l-6.31,1.4H964.8l-8.41-2.8l-5.61-4.2l-2.8-3.5l-2.8-6.31l-0.7-3.5v-5.61l2.1-10.51l4.2-10.51l5.61-9.81l6.31-8.41
		l6.31-7.71l9.81-9.81l10.51-7.71l11.91-7.01l11.91-5.61l15.42-6.31l2.8,0.7l2.8,9.81l2.1,12.61l0.7,6.31V336.69z"/>
</g>
</svg>
